<svg xmlns="http://www.w3.org/2000/svg" version="1.1" xmlns:xlink="http://www.w3.org/1999/xlink" xmlns:svgjs="http://svgjs.dev/svgjs" width="2000" height="494" viewBox="0 0 2000 494"><g transform="matrix(1,0,0,1,-1.2121212121212466,0.9430819152988477)"><svg viewBox="0 0 396 98" data-background-color="#ffffff" preserveAspectRatio="xMidYMid meet" height="494" width="2000" xmlns="http://www.w3.org/2000/svg" xmlns:xlink="http://www.w3.org/1999/xlink"><g id="tight-bounds" transform="matrix(1,0,0,1,0.2400000000000091,-0.18708912489734075)"><svg viewBox="0 0 395.52 98.37417824979467" height="98.37417824979467" width="395.52"><g><svg viewBox="0 0 395.52 98.37417824979467" height="98.37417824979467" width="395.52"><g><svg viewBox="0 0 395.52 98.37417824979467" height="98.37417824979467" width="395.52"><g><svg viewBox="0 0 562.1987225840652 139.83069717660723" height="98.37417824979467" width="395.52"><g transform="matrix(1,0,0,1,166.6787225840652,13.072677497469932)"><svg viewBox="0 0 395.52 113.68534218166737" height="113.68534218166737" width="395.52"><g id="textblocktransform"><svg viewBox="0 0 395.52 113.68534218166737" height="113.68534218166737" width="395.52" id="textblock"><g><svg viewBox="0 0 395.52 113.68534218166737" height="113.68534218166737" width="395.52"><g transform="matrix(1,0,0,1,0,0)"><svg width="395.52" viewBox="0.75 -31.7 120.54 34.65" height="113.68534218166737" data-palette-color="#000000"><path d="M9.35-1.25L9.35-1.25Q4.95 2.15 2.9 2.15L2.9 2.15Q1.8 2.15 1.28 1.07 0.75 0 0.75-1.25L0.75-1.25Q0.75-3.65 2.78-8.45 4.8-13.25 6.65-13.25L6.65-13.25Q7.6-13.25 8.28-9.5 8.95-5.75 9.65-4.05L9.65-4.05Q13.05-7.65 19.5-16.05L19.5-16.05Q27.6-26.7 30.25-27.7L30.25-27.7Q31.15-28.05 32.1-28.05 33.05-28.05 33.68-27.65 34.3-27.25 34.3-26.65L34.3-26.65Q34.3-25.8 32.85-25.65L32.85-25.65Q31.1-24.7 27.45-21.05L27.45-21.05Q23.8-17.5 21.6-14.4L21.6-14.4Q16.25-6.95 10.6-2.25L10.6-2.25Q13.4 1.9 19.4 1.9L19.4 1.9Q20.05 1.9 21.35 1.8L21.35 1.8Q35.25 0.5 41.05-10.25L41.05-10.25Q43.4-14.55 43.4-18.75 43.4-22.95 40.35-26.3L40.35-26.3Q37.9-29.05 35.02-29.7 32.15-30.35 29.15-30.35L29.15-30.35Q21.45-30.35 14.95-26.8L14.95-26.8Q8.1-23.05 8.1-18.4L8.1-18.4Q8.1-17.15 8.78-16.35 9.45-15.55 9.7-15.45L9.7-15.45 9.4-15.45Q8.1-15.7 7.1-16.75L7.1-16.75Q6-18.05 6-19.5L6-19.5Q6-24.5 12.28-28.1 18.55-31.7 27-31.7L27-31.7Q30.9-31.7 35-30.8 39.1-29.9 42.45-26.5L42.45-26.5Q46.3-22.5 46.3-17.45L46.3-17.45Q46.3-13.7 44.1-9.7L44.1-9.7Q40.3-2.8 32.75 0.4L32.75 0.4Q26.7 2.95 19.7 2.95 12.7 2.95 9.35-1.25ZM2.55-1.45L2.55-1.45Q2.55 0.1 3.15 1.25L3.15 1.25Q5.3 0.3 8.35-2.7L8.35-2.7Q6.9-5.1 6.53-6.48 6.15-7.85 6-10.1L6-10.1Q2.55-5.15 2.55-1.45ZM9.7-15.45L9.7-15.45Q9.75-15.45 9.8-15.5L9.8-15.5Q9.8-15.4 9.78-15.4 9.75-15.4 9.7-15.45ZM48.6 0.65L48.6 0.65Q48.05 0.65 47.6 0.5L47.6 0.5Q44.4-0.4 44.4-3.1L44.4-3.1Q44.4-6.6 48.8-11.2 53.2-15.8 56.7-15.8L56.7-15.8Q57.85-15.8 58.57-15.18 59.3-14.55 59.3-13.65L59.3-13.65Q59.3-10.85 55.07-8.3 50.85-5.75 48.2-5.75L48.2-5.75Q47.8-5.75 47.5-5.85L47.5-5.85Q46.75-4.5 46.75-3L46.75-3Q46.75-0.4 49.22-0.4 51.7-0.4 55.65-3.75L55.65-3.75Q58.7-6.2 60.85-8.95L60.85-8.95Q61.3-9.55 61.62-9.55 61.95-9.55 61.95-9.25 61.95-8.95 61.55-8.4L61.55-8.4Q58.85-4.85 55.05-2.1 51.25 0.65 48.6 0.65ZM58.05-13.75L58.05-13.75Q58.05-14.35 56.77-14.35 55.5-14.35 53.15-12.4L53.15-12.4Q50-9.8 48.25-6.95L48.25-6.95Q48.55-6.85 48.9-6.85L48.9-6.85Q50.8-6.85 53.97-8.88 57.15-10.9 57.95-13.3L57.95-13.3Q58.05-13.55 58.05-13.75ZM60.85-2.5Q60.85-1 62.5-1 64.15-1 66.75-2.75 69.35-4.5 71.8-7.5L71.8-7.5Q72.4-8.3 72.75-8.3 73.1-8.3 73.1-8L73.1-8Q73.1-7.7 71.05-5.4L71.05-5.4Q66.05 0.1 62.7 0.1L62.7 0.1Q61.05 0.1 59.9-0.68 58.75-1.45 58.75-3.08 58.75-4.7 59.6-6.85L59.6-6.85Q61.05-10.25 64.25-15.4L64.25-15.4Q70.1-24.9 72.55-24.9L72.55-24.9Q73.05-24.9 73.57-24.53 74.1-24.15 74.15-23.7L74.15-23.7Q73-22.15 69.72-17.75 66.45-13.35 65.2-11.43 63.95-9.5 63.32-8.55 62.7-7.6 62.4-7.08 62.1-6.55 61.7-5.7L61.7-5.7Q60.85-4 60.85-2.5ZM81.89-20.4Q82.64-20.4 83.32-19.93 83.99-19.45 83.99-18.8 83.99-18.15 83.37-17.68 82.74-17.2 81.99-17.2 81.24-17.2 80.62-17.75 79.99-18.3 79.99-19L79.99-19Q79.99-20.4 81.89-20.4L81.89-20.4ZM72.84 0.55L72.84 0.55Q70.29 0.55 70.29-2.75L70.29-2.75Q70.29-5.45 73.24-10.23 76.19-15 77.99-15.05L77.99-15.05Q78.49-15.05 79.12-14.65 79.74-14.25 79.74-13.85L79.74-13.85Q79.49-13.5 79.14-13.08 78.79-12.65 78.39-12.15 77.99-11.65 77.29-10.73 76.59-9.8 75.94-8.95L75.94-8.95Q72.19-4.1 72.19-2.27 72.19-0.45 73.44-0.45L73.44-0.45Q74.49-0.45 76.29-1.6L76.29-1.6Q80.49-4.2 82.94-7.3L82.94-7.3Q83.84-8.45 84.17-8.45 84.49-8.45 84.49-8.05 84.49-7.65 83.34-6.45 82.19-5.25 81.52-4.55 80.84-3.85 80.59-3.63 80.34-3.4 79.67-2.78 78.99-2.15 78.64-1.9 78.29-1.65 77.64-1.15 76.99-0.65 76.49-0.43 75.99-0.2 75.34 0.1L75.34 0.1Q74.29 0.55 72.84 0.55ZM93.14-1.8L91.54-0.75Q90.09 0.1 87.97 0.1 85.84 0.1 84.72-1.3 83.59-2.7 82.79-5.75L82.79-5.75Q81.89-4.85 81.54-4.85L81.54-4.85Q81.29-4.85 81.29-5.2 81.29-5.55 81.54-5.8L81.54-5.8Q83.19-7.85 87.14-11.7L87.14-11.7 93.44-17.6Q96.14-20.15 96.64-20.15L96.64-20.15Q98.24-20.15 98.24-18.95L98.24-18.95Q98.24-18.35 97.77-17.78 97.29-17.2 97.07-16.88 96.84-16.55 96.59-16.25L96.59-16.25Q95.69-14.7 94.77-9.85 93.84-5 93.34-3.1L93.34-3.1Q97.49-3.15 101.89-8.5L101.89-8.5Q102.39-9 102.64-9 102.89-9 102.89-8.68 102.89-8.35 102.44-7.8L102.44-7.8Q99.54-4.4 97.04-3.05L97.04-3.05Q95.54-2.3 93.14-1.8L93.14-1.8ZM84.79-6.3L84.79-6.3Q84.79-4.6 85.92-3.53 87.04-2.45 88.44-2.45 89.84-2.45 90.59-3L90.59-3Q91.59-3.55 92.57-7.6 93.54-11.65 93.74-14.75L93.74-14.75 93.94-16.45Q91.19-14.4 88.07-11.15 84.94-7.9 84.84-6.85L84.84-6.85Q84.79-6.55 84.79-6.3ZM112.14-0.2L112.14-0.2Q109.19-0.2 109.19-3.65L109.19-3.65Q109.19-5.6 110.56-7.98 111.94-10.35 113.94-13.55L113.94-13.55Q107.54-10.35 102.34-4.1L102.34-4.1Q99.44 0.25 98.94 0.25L98.94 0.25Q97.49 0.25 97.49-0.6L97.49-0.6Q97.49-1.05 98.09-2.2L98.09-2.2Q102.94-10.85 105.44-14.85L105.44-14.85Q111.39-24.4 113.84-25.2L113.84-25.2Q113.94-25.25 114.04-25.25L114.04-25.25Q114.69-25.25 114.94-24.2L114.94-24.2Q114.79-23.15 109.74-16.6L109.74-16.6Q104.49-9.95 103.79-7.9L103.79-7.9Q105.64-9.25 110.24-12.45L110.24-12.45Q115.19-15.9 116.79-15.9 118.39-15.9 118.39-14.65L118.39-14.65Q118.39-14.45 118.36-14.38 118.34-14.3 114.89-9.65 111.44-5 111.44-2.8L111.44-2.8Q111.44-1.65 112.29-1.65L112.29-1.65Q114.99-1.75 120.39-8.15L120.39-8.15Q120.84-8.6 121.06-8.6 121.29-8.6 121.29-8.3L121.29-8.3Q121.29-7.3 116.34-2.9L116.34-2.9Q113.24-0.2 112.14-0.2Z" opacity="1" transform="matrix(1,0,0,1,0,0)" fill="#000000" class="wordmark-text-0" data-fill-palette-color="primary" id="text-0"></path></svg></g></svg></g></svg></g></svg></g><g><svg viewBox="0 0 139.84034174318592 139.83069717660723" height="139.83069717660723" width="139.84034174318592"><g><svg xmlns="http://www.w3.org/2000/svg" xmlns:xlink="http://www.w3.org/1999/xlink" version="1.1" x="0" y="0" viewBox="2.4714644531048573 2.4714644531048573 94.96362058408657 94.95707109379028" enable-background="new 0 0 100 100" xml:space="preserve" height="139.83069717660723" width="139.84034174318592" class="icon-icon-0" data-fill-palette-color="accent" id="icon-0"><path fill="#ff6600" d="M51.7 2.5C25.4 1.6 3.4 22.1 2.5 48.3s19.6 48.2 45.8 49.1c26.2 0.9 48.2-19.6 49.1-45.8C98.4 25.4 77.9 3.4 51.7 2.5zM48.8 83.6c-18.5-0.6-33.1-16.2-32.4-34.7 0.6-18.5 16.2-33.1 34.7-32.4 18.5 0.6 33.1 16.2 32.4 34.7C82.9 69.7 67.4 84.2 48.8 83.6zM44.7 23.3c-1.8-0.1-3.5 0.1-5.3 0.3 3.6-1.4 7.5-2.2 11.5-2C66.7 22.1 79 35.3 78.4 51c-0.1 4-1.1 7.9-2.8 11.3 0.3-1.7 0.5-3.3 0.6-5.1C76.9 39.1 62.8 23.9 44.7 23.3z" data-fill-palette-color="accent"></path></svg></g></svg></g></svg></g></svg></g></svg></g><defs></defs></svg><rect width="395.52" height="98.37417824979467" fill="none" stroke="none" visibility="hidden"></rect></g></svg></g></svg>